<svg width="173" height="31" viewBox="0 0 173 31" fill="none" xmlns="http://www.w3.org/2000/svg">
<path d="M10.112 24.448C8.27733 24.448 6.50667 24.224 4.8 23.776C3.11467 23.3067 1.73867 22.7093 0.672 21.984L2.752 17.312C3.75467 17.952 4.90667 18.4853 6.208 18.912C7.53067 19.3173 8.84267 19.52 10.144 19.52C11.0187 19.52 11.7227 19.4453 12.256 19.296C12.7893 19.1253 13.1733 18.912 13.408 18.656C13.664 18.3787 13.792 18.0587 13.792 17.696C13.792 17.184 13.5573 16.7787 13.088 16.48C12.6187 16.1813 12.0107 15.936 11.264 15.744C10.5173 15.552 9.68533 15.36 8.768 15.168C7.872 14.976 6.96533 14.7307 6.048 14.432C5.152 14.1333 4.33067 13.7493 3.584 13.28C2.83733 12.7893 2.22933 12.16 1.76 11.392C1.29067 10.6027 1.056 9.61067 1.056 8.416C1.056 7.072 1.41867 5.856 2.144 4.768C2.89067 3.68 4 2.80533 5.472 2.144C6.944 1.48267 8.77867 1.152 10.976 1.152C12.448 1.152 13.888 1.32267 15.296 1.664C16.7253 1.984 17.9947 2.464 19.104 3.104L17.152 7.808C16.0853 7.232 15.0293 6.80533 13.984 6.528C12.9387 6.22933 11.9253 6.08 10.944 6.08C10.0693 6.08 9.36533 6.176 8.832 6.368C8.29867 6.53867 7.91467 6.77333 7.68 7.072C7.44533 7.37067 7.328 7.712 7.328 8.096C7.328 8.58667 7.552 8.98133 8 9.28C8.46933 9.55733 9.07733 9.792 9.824 9.984C10.592 10.1547 11.424 10.336 12.32 10.528C13.2373 10.72 14.144 10.9653 15.04 11.264C15.9573 11.5413 16.7893 11.9253 17.536 12.416C18.2827 12.8853 18.88 13.5147 19.328 14.304C19.7973 15.072 20.032 16.0427 20.032 17.216C20.032 18.5173 19.6587 19.7227 18.912 20.832C18.1867 21.92 17.088 22.7947 15.616 23.456C14.1653 24.1173 12.3307 24.448 10.112 24.448ZM30.4148 24.288C28.1961 24.288 26.4681 23.744 25.2308 22.656C23.9934 21.5467 23.3748 19.8827 23.3748 17.664V2.784H29.4548V17.6C29.4548 18.2187 29.6254 18.7093 29.9668 19.072C30.3081 19.4133 30.7454 19.584 31.2788 19.584C32.0041 19.584 32.6228 19.4027 33.1348 19.04L34.6388 23.296C34.1268 23.6373 33.4974 23.8827 32.7508 24.032C32.0041 24.2027 31.2254 24.288 30.4148 24.288ZM20.8468 11.84V7.296H33.4228V11.84H20.8468ZM44.2793 24.288C42.8713 24.288 41.6019 24.0107 40.4713 23.456C39.3619 22.9013 38.4873 22.0373 37.8473 20.864C37.2286 19.6693 36.9193 18.1653 36.9193 16.352V6.656H42.9993V15.36C42.9993 16.704 43.2446 17.664 43.7353 18.24C44.2473 18.816 44.9619 19.104 45.8793 19.104C46.4766 19.104 47.0206 18.9653 47.5113 18.688C48.0019 18.4107 48.3966 17.9733 48.6953 17.376C48.9939 16.7573 49.1433 15.968 49.1433 15.008V6.656H55.2233V24H49.4313V19.104L50.5513 20.48C49.9539 21.76 49.0899 22.72 47.9593 23.36C46.8286 23.9787 45.6019 24.288 44.2793 24.288ZM66.6915 24.288C65.1128 24.288 63.6728 23.9253 62.3715 23.2C61.0915 22.4533 60.0675 21.4187 59.2995 20.096C58.5315 18.752 58.1475 17.152 58.1475 15.296C58.1475 13.4613 58.5315 11.8827 59.2995 10.56C60.0675 9.216 61.0915 8.18133 62.3715 7.456C63.6728 6.73067 65.1128 6.368 66.6915 6.368C68.1848 6.368 69.4435 6.688 70.4675 7.328C71.5128 7.968 72.3022 8.94933 72.8355 10.272C73.3688 11.5947 73.6355 13.2693 73.6355 15.296C73.6355 17.3653 73.3795 19.0613 72.8675 20.384C72.3555 21.7067 71.5875 22.688 70.5635 23.328C69.5395 23.968 68.2488 24.288 66.6915 24.288ZM67.9715 19.456C68.6542 19.456 69.2622 19.296 69.7955 18.976C70.3502 18.656 70.7875 18.1867 71.1075 17.568C71.4275 16.928 71.5875 16.1707 71.5875 15.296C71.5875 14.4213 71.4275 13.6853 71.1075 13.088C70.7875 12.4693 70.3502 12 69.7955 11.68C69.2622 11.36 68.6542 11.2 67.9715 11.2C67.2675 11.2 66.6382 11.36 66.0835 11.68C65.5502 12 65.1235 12.4693 64.8035 13.088C64.4835 13.6853 64.3235 14.4213 64.3235 15.296C64.3235 16.1707 64.4835 16.928 64.8035 17.568C65.1235 18.1867 65.5502 18.656 66.0835 18.976C66.6382 19.296 67.2675 19.456 67.9715 19.456ZM71.7795 24V21.024L71.8115 15.296L71.4915 9.568V0.255999H77.5715V24H71.7795ZM84.4593 30.496C83.5419 30.496 82.6139 30.3467 81.6753 30.048C80.7579 29.7707 80.0113 29.3973 79.4352 28.928L81.5473 24.672C81.9099 24.992 82.3259 25.2373 82.7953 25.408C83.2859 25.6 83.7659 25.696 84.2352 25.696C84.8966 25.696 85.4193 25.5467 85.8033 25.248C86.1873 24.9493 86.5179 24.48 86.7953 23.84L87.5953 21.824L88.0753 21.216L93.9633 6.656H99.7553L92.2673 24.704C91.6699 26.1973 90.9766 27.36 90.1873 28.192C89.4193 29.0453 88.5553 29.6427 87.5953 29.984C86.6566 30.3253 85.6113 30.496 84.4593 30.496ZM86.8273 24.736L79.1792 6.656H85.4193L91.0513 20.672L86.8273 24.736ZM107.279 19.04L106.927 11.936L116.559 1.6H123.535L113.935 12L110.415 15.68L107.279 19.04ZM101.615 24V1.6H107.887V24H101.615ZM116.655 24L109.359 14.752L113.487 10.336L124.015 24H116.655ZM132.186 24.288C130.778 24.288 129.508 24.0107 128.378 23.456C127.268 22.9013 126.394 22.0373 125.754 20.864C125.135 19.6693 124.826 18.1653 124.826 16.352V6.656H130.906V15.36C130.906 16.704 131.151 17.664 131.642 18.24C132.154 18.816 132.868 19.104 133.786 19.104C134.383 19.104 134.927 18.9653 135.418 18.688C135.908 18.4107 136.303 17.9733 136.602 17.376C136.9 16.7573 137.05 15.968 137.05 15.008V6.656H143.13V24H137.338V19.104L138.458 20.48C137.86 21.76 136.996 22.72 135.866 23.36C134.735 23.9787 133.508 24.288 132.186 24.288ZM150.022 30.496C149.104 30.496 148.176 30.3467 147.238 30.048C146.32 29.7707 145.574 29.3973 144.998 28.928L147.11 24.672C147.472 24.992 147.888 25.2373 148.358 25.408C148.848 25.6 149.328 25.696 149.798 25.696C150.459 25.696 150.982 25.5467 151.366 25.248C151.75 24.9493 152.08 24.48 152.358 23.84L153.158 21.824L153.638 21.216L159.526 6.656H165.318L157.83 24.704C157.232 26.1973 156.539 27.36 155.75 28.192C154.982 29.0453 154.118 29.6427 153.158 29.984C152.219 30.3253 151.174 30.496 150.022 30.496ZM152.39 24.736L144.742 6.656H150.982L156.614 20.672L152.39 24.736ZM168.45 24.288C167.426 24.288 166.562 23.9467 165.858 23.264C165.154 22.5813 164.802 21.7173 164.802 20.672C164.802 19.584 165.154 18.72 165.858 18.08C166.562 17.4187 167.426 17.088 168.45 17.088C169.474 17.088 170.338 17.4187 171.042 18.08C171.746 18.72 172.098 19.584 172.098 20.672C172.098 21.7173 171.746 22.5813 171.042 23.264C170.338 23.9467 169.474 24.288 168.45 24.288Z" fill="#157AFE"/>
</svg>
