<svg width="30" height="24" viewBox="0 0 30 24" fill="none" xmlns="http://www.w3.org/2000/svg">
<path d="M10.112 23.448C8.27733 23.448 6.50667 23.224 4.8 22.776C3.11467 22.3067 1.73867 21.7093 0.672 20.984L2.752 16.312C3.75467 16.952 4.90667 17.4853 6.208 17.912C7.53067 18.3173 8.84267 18.52 10.144 18.52C11.0187 18.52 11.7227 18.4453 12.256 18.296C12.7893 18.1253 13.1733 17.912 13.408 17.656C13.664 17.3787 13.792 17.0587 13.792 16.696C13.792 16.184 13.5573 15.7787 13.088 15.48C12.6187 15.1813 12.0107 14.936 11.264 14.744C10.5173 14.552 9.68533 14.36 8.768 14.168C7.872 13.976 6.96533 13.7307 6.048 13.432C5.152 13.1333 4.33067 12.7493 3.584 12.28C2.83733 11.7893 2.22933 11.16 1.76 10.392C1.29067 9.60267 1.056 8.61067 1.056 7.416C1.056 6.072 1.41867 4.856 2.144 3.768C2.89067 2.68 4 1.80533 5.472 1.144C6.944 0.482665 8.77867 0.151999 10.976 0.151999C12.448 0.151999 13.888 0.322666 15.296 0.664C16.7253 0.983999 17.9947 1.464 19.104 2.104L17.152 6.808C16.0853 6.232 15.0293 5.80533 13.984 5.528C12.9387 5.22933 11.9253 5.08 10.944 5.08C10.0693 5.08 9.36533 5.176 8.832 5.368C8.29867 5.53867 7.91467 5.77333 7.68 6.072C7.44533 6.37067 7.328 6.712 7.328 7.096C7.328 7.58667 7.552 7.98133 8 8.28C8.46933 8.55733 9.07733 8.792 9.824 8.984C10.592 9.15467 11.424 9.336 12.32 9.528C13.2373 9.72 14.144 9.96533 15.04 10.264C15.9573 10.5413 16.7893 10.9253 17.536 11.416C18.2827 11.8853 18.88 12.5147 19.328 13.304C19.7973 14.072 20.032 15.0427 20.032 16.216C20.032 17.5173 19.6587 18.7227 18.912 19.832C18.1867 20.92 17.088 21.7947 15.616 22.456C14.1653 23.1173 12.3307 23.448 10.112 23.448ZM25.8558 23.288C24.8318 23.288 23.9678 22.9467 23.2638 22.264C22.5598 21.5813 22.2078 20.7173 22.2078 19.672C22.2078 18.584 22.5598 17.72 23.2638 17.08C23.9678 16.4187 24.8318 16.088 25.8558 16.088C26.8798 16.088 27.7438 16.4187 28.4478 17.08C29.1518 17.72 29.5038 18.584 29.5038 19.672C29.5038 20.7173 29.1518 21.5813 28.4478 22.264C27.7438 22.9467 26.8798 23.288 25.8558 23.288Z" fill="#157AFE"/>
</svg>
