<svg width="27" height="26" viewBox="0 0 27 26" fill="none" xmlns="http://www.w3.org/2000/svg">
<path d="M12.1254 25.1667L1.12535 14.1667C0.958685 14 0.840351 13.8194 0.770351 13.625C0.700351 13.4306 0.665907 13.2222 0.667018 13C0.667018 12.7778 0.702019 12.5694 0.772019 12.375C0.842019 12.1806 0.959796 12 1.12535 11.8333L12.1254 0.833337C12.4309 0.527782 12.8131 0.368338 13.272 0.355004C13.7309 0.341671 14.1265 0.501115 14.4587 0.833337C14.792 1.13889 14.9659 1.52112 14.9804 1.98C14.9948 2.43889 14.8348 2.83445 14.5003 3.16667L6.33368 11.3333H24.9587C25.4309 11.3333 25.827 11.4933 26.147 11.8133C26.467 12.1333 26.6265 12.5289 26.6253 13C26.6253 13.4722 26.4659 13.8683 26.147 14.1883C25.8281 14.5083 25.432 14.6678 24.9587 14.6667H6.33368L14.5003 22.8333C14.8059 23.1389 14.9659 23.5278 14.9804 24C14.9948 24.4722 14.8348 24.8611 14.5003 25.1667C14.1948 25.5 13.8059 25.6667 13.3337 25.6667C12.8615 25.6667 12.4587 25.5 12.1254 25.1667Z" fill="#157AFE"/>
</svg>
