<svg width="28" height="28" viewBox="0 0 28 28" fill="none" xmlns="http://www.w3.org/2000/svg">
<path fill-rule="evenodd" clip-rule="evenodd" d="M7.14259 23.4937C8.13213 23.4937 8.93734 24.2975 8.93734 25.287C8.93734 26.2766 8.13213 27.0818 7.14259 27.0818C6.15306 27.0818 5.34923 26.2766 5.34923 25.287C5.34923 24.2975 6.15306 23.4937 7.14259 23.4937ZM22.776 23.4937C23.7669 23.4937 24.5721 24.2975 24.5721 25.287C24.5721 26.2766 23.7669 27.0818 22.776 27.0818C21.7865 27.0818 20.9826 26.2766 20.9826 25.287C20.9826 24.2975 21.7865 23.4937 22.776 23.4937ZM1.21675 0.0131481L4.09943 0.512073C4.5637 0.593841 4.91711 0.979122 4.9573 1.45033L5.28299 5.33224L6.49406 5.33277C6.69168 5.33285 6.88721 5.33294 7.08067 5.33303L9.30408 5.33408C9.48131 5.33417 9.65656 5.33426 9.82984 5.33435L12.2848 5.3357C12.4391 5.33579 12.5914 5.33588 12.742 5.33597L14.4624 5.33707C14.5986 5.33716 14.7332 5.33725 14.866 5.33734L16.3792 5.33846C16.4986 5.33855 16.6165 5.33865 16.7327 5.33874L18.052 5.33987C18.1558 5.33997 18.2581 5.34006 18.3588 5.34016L19.2259 5.34102C19.3179 5.34112 19.4085 5.34121 19.4977 5.34131L20.5019 5.34248C20.5802 5.34257 20.6572 5.34267 20.7329 5.34277L21.5807 5.34395C21.6465 5.34405 21.711 5.34415 21.7743 5.34425L22.3132 5.34515C22.3697 5.34525 22.425 5.34535 22.4793 5.34545L23.0795 5.34667C23.1254 5.34677 23.1703 5.34687 23.2142 5.34698L23.5837 5.3479C23.6219 5.348 23.6592 5.34811 23.6957 5.34821L24.0917 5.34946C24.1214 5.34956 24.1503 5.34967 24.1784 5.34977L24.4109 5.35072C24.4345 5.35083 24.4575 5.35093 24.4797 5.35104L24.7149 5.35232C24.732 5.35243 24.7485 5.35254 24.7644 5.35264L24.8926 5.35362C24.9053 5.35373 24.9174 5.35383 24.9291 5.35394L25.0213 5.35493C25.0303 5.35504 25.0388 5.35515 25.0469 5.35526L25.1097 5.35625C25.1156 5.35636 25.1212 5.35647 25.1264 5.35659L25.1662 5.35759C25.1698 5.3577 25.1732 5.35782 25.1763 5.35793L25.2051 5.35929L25.21 5.35963C25.2235 5.36089 25.2275 5.36135 25.2275 5.36135C25.9995 5.47361 26.6786 5.8769 27.1414 6.49779C27.6043 7.11729 27.7984 7.88092 27.6875 8.64594L26.3723 17.7347C26.1242 19.4643 24.6219 20.7684 22.8756 20.7684H7.74019C5.91496 20.7684 4.36968 19.3437 4.22138 17.5213L2.9519 2.42323L0.863341 2.0629C0.296507 1.96311 -0.0818444 1.42677 0.0151688 0.859935C0.114954 0.293101 0.662385 -0.0755497 1.21675 0.0131481ZM6.21602 7.41157L5.45761 7.4111L6.29331 17.3508C6.35429 18.1158 6.97933 18.6896 7.74296 18.6896H22.8729C23.5949 18.6896 24.2116 18.1518 24.3142 17.4381L25.6308 8.34797C25.6613 8.13177 25.6073 7.91557 25.4756 7.74094C25.3453 7.56493 25.1541 7.45129 24.9379 7.4208C24.9279 7.42118 24.9039 7.42153 24.8667 7.42185L24.716 7.42271C24.6845 7.42284 24.6498 7.42296 24.612 7.42307L23.8269 7.42427C23.7607 7.42432 23.6918 7.42436 23.6204 7.42439L21.7744 7.42432C21.6714 7.42428 21.5664 7.42423 21.4596 7.42419L19.3529 7.42291C19.2267 7.42281 19.0991 7.42272 18.9702 7.42262L17.7781 7.42167C17.6423 7.42155 17.5055 7.42144 17.3678 7.42132L16.1051 7.42021C15.9625 7.42008 15.8193 7.41995 15.6754 7.41982L14.8056 7.41902C14.6597 7.41889 14.5133 7.41875 14.3666 7.41861L13.0393 7.41737C12.8913 7.41723 12.7433 7.4171 12.5952 7.41696L11.7073 7.41613C11.5595 7.416 11.4119 7.41586 11.2646 7.41572L10.3843 7.41493C10.2383 7.41479 10.0927 7.41466 9.94764 7.41454L8.65805 7.41343C8.51679 7.41331 8.37629 7.41319 8.23664 7.41308L6.60693 7.41184C6.47541 7.41175 6.34508 7.41166 6.21602 7.41157ZM20.647 10.455C21.2207 10.455 21.6864 10.9206 21.6864 11.4944C21.6864 12.0681 21.2207 12.5338 20.647 12.5338H16.8052C16.2301 12.5338 15.7658 12.0681 15.7658 11.4944C15.7658 10.9206 16.2301 10.455 16.8052 10.455H20.647Z" fill="#333333"/>
</svg>
