<svg width="20" height="21" viewBox="0 0 20 21" fill="none" xmlns="http://www.w3.org/2000/svg">
<path fill-rule="evenodd" clip-rule="evenodd" d="M9.6082 0C14.9061 0 19.2154 4.30934 19.2154 9.60721C19.2154 12.1067 18.2562 14.3864 16.6865 16.0974L19.7752 19.1796C20.0643 19.4687 20.0652 19.9363 19.7762 20.2254C19.6321 20.3714 19.4417 20.4434 19.2523 20.4434C19.0639 20.4434 18.8745 20.3714 18.7294 20.2273L15.6034 17.1101C13.959 18.427 11.874 19.2154 9.6082 19.2154C4.31032 19.2154 0 14.9051 0 9.60721C0 4.30934 4.31032 0 9.6082 0ZM9.6082 1.47985C5.12622 1.47985 1.47985 5.12523 1.47985 9.60721C1.47985 14.0892 5.12622 17.7356 9.6082 17.7356C14.0892 17.7356 17.7356 14.0892 17.7356 9.60721C17.7356 5.12523 14.0892 1.47985 9.6082 1.47985Z" fill="#808080"/>
</svg>
